<svg version="1.0" xmlns="http://www.w3.org/2000/svg" width="353.333" height="353.333" viewBox="0 0 265 265"><path d="M201.5 18.6c-7.7 8.5-15.6 17.1-17.5 19.2-1.9 2.1-8.4 9.1-14.5 15.6-6 6.5-11.3 12.6-11.7 13.5-.8 2-1 114.8-.2 117.9.4 1.3 1 2.2 1.4 2 1.3-.5 12.7-11.3 35.8-33.9l22.2-21.8V67.6c0-34.9-.3-63.7-.7-63.9-.5-.2-7.1 6.5-14.8 14.9z"/><path d="M49.5 48.5c-9.4 1.5-20.6 4.3-22 5.6-.5.5-1.5.9-2.3.9-3 0-17.8 7.9-20.4 10.9L2 69v166l2.6 3c3.1 3.4 8.3 5.4 11.6 4.5 1.3-.3 5.5-2.1 9.3-3.9 10.3-5 14.4-6.6 16.3-6.6.9 0 3.7-.7 6.2-1.6 6.5-2.3 32.5-2.3 40 0 3 .9 7.1 2.1 9 2.7 3.2 1 16.7 7.4 21.5 10.2 5.8 3.5 13.5 9 13.5 9.8 0 .5.7.9 1.5.9s1.5-.4 1.5-.9c0-2 21-14.5 32.5-19.3 9.7-4 27.7-6.1 41-4.9 12.8 1.3 19.1 3.1 33.1 9.7 11.5 5.4 14.3 5.4 21.2-.5l2.2-1.9V69l-2.7-3.1c-3-3.3-18.8-11.3-20.4-10.4-.5.4-.9 30.5-.9 76.9 0 41.9-.3 76.5-.6 76.9-.3.3-2.4-.1-4.7-.8-13.5-4.5-15.4-4.8-32.7-5.3-17.1-.4-20.2-.1-33.5 3.2-9.8 2.4-21.5 7.4-30.6 13.2-2.3 1.4-4.4 2.2-4.7 1.9-.4-.4-.8-35.6-1-78.3l-.2-77.7-9.3-4.7c-5-2.6-12.1-5.7-15.7-6.8-3.6-1.1-7.9-2.5-9.7-3.1-11.4-3.6-33.9-4.7-48.8-2.4zm43.4 27.6c4.2 1.2 8.1 2.5 8.6 2.9.6.4 2.3 1 3.8 1.4 1.7.4 3.1 1.6 3.7 3.2 1.4 3.5 1.3 121.9 0 124.4-.9 1.6-1.5 1.8-3.8.9-11.9-4.7-16.3-5.3-37.2-5.3-18 0-21.4.2-28.2 2.1-4.3 1.2-8.7 2.7-9.8 3.3-1.1.6-2.5.8-3 .5-.6-.4-1-23.7-1-64.1V81.9l4.3-1.8c6.4-2.8 15.5-5.3 22.2-6.2 10.2-1.3 31.9-.2 40.4 2.2z"/></svg>