<?xml version="1.0" standalone="no"?>
<!DOCTYPE svg PUBLIC "-//W3C//DTD SVG 20010904//EN"
 "http://www.w3.org/TR/2001/REC-SVG-20010904/DTD/svg10.dtd">
<svg version="1.0" xmlns="http://www.w3.org/2000/svg"
 width="265.000000pt" height="265.000000pt" viewBox="0 0 265.000000 265.000000"
 preserveAspectRatio="xMidYMid meet">
<metadata>
Created by potrace 1.14, written by Peter Selinger 2001-2017
</metadata>
<g transform="translate(0.000000,265.000000) scale(0.100000,-0.100000)"
fill="#000000" stroke="none">
<path d="M2015 2464 c-77 -85 -156 -171 -175 -192 -19 -21 -84 -91 -145 -156
-60 -65 -113 -126 -117 -135 -8 -20 -10 -1148 -2 -1179 4 -13 10 -22 14 -20
13 5 127 113 358 339 l222 218 0 635 c0 349 -3 637 -7 639 -5 2 -71 -65 -148
-149z"/>
<path d="M495 2165 c-94 -15 -206 -43 -220 -56 -5 -5 -15 -9 -23 -9 -30 0
-178 -79 -204 -109 l-28 -31 0 -830 0 -830 26 -30 c31 -34 83 -54 116 -45 13
3 55 21 93 39 103 50 144 66 163 66 9 0 37 7 62 16 65 23 325 23 400 0 30 -9
71 -21 90 -27 32 -10 167 -74 215 -102 58 -35 135 -90 135 -98 0 -5 7 -9 15
-9 8 0 15 4 15 9 0 20 210 145 325 193 97 40 277 61 410 49 128 -13 191 -31
331 -97 115 -54 143 -54 212 5 l22 19 0 836 0 836 -27 31 c-30 33 -188 113
-204 104 -5 -4 -9 -305 -9 -769 0 -419 -3 -765 -6 -769 -3 -3 -24 1 -47 8
-135 45 -154 48 -327 53 -171 4 -202 1 -335 -32 -98 -24 -215 -74 -306 -132
-23 -14 -44 -22 -47 -19 -4 4 -8 356 -10 783 l-2 777 -93 47 c-50 26 -121 57
-157 68 -36 11 -79 25 -97 31 -114 36 -339 47 -488 24z m434 -276 c42 -12 81
-25 86 -29 6 -4 23 -10 38 -14 17 -4 31 -16 37 -32 14 -35 13 -1219 0 -1244
-9 -16 -15 -18 -38 -9 -119 47 -163 53 -372 53 -180 0 -214 -2 -282 -21 -43
-12 -87 -27 -98 -33 -11 -6 -25 -8 -30 -5 -6 4 -10 237 -10 641 l0 635 43 18
c64 28 155 53 222 62 102 13 319 2 404 -22z"/>
</g>
</svg>
